#format: frame checksums
#version: 2
#hash: MD5
#tb 0: 1/15
#media_type 0: video
#codec_id 0: rawvideo
#dimensions 0: 320x240
#sar 0: 0/1
#tb 1: 1/44100
#media_type 1: audio
#codec_id 1: pcm_s16le
#sample_rate 1: 44100
#channel_layout_name 1: stereo
#stream#, dts,        pts, duration,     size, hash
0,          0,          0,        1,   230400, e34fab072ed2324d6d91c402f9e49389
1,          0,          0,    22050,    88200, e9ded829730eccd2d0273d7cc06be58c
0,          1,          1,        1,   230400, 21e8e52ce3559b81241c10c1421bfb93
0,          2,          2,        1,   230400, bbf054c689318925f29e26779892ad41
0,          3,          3,        1,   230400, 589dbb582f1302319d6360d04a09c591
0,          4,          4,        1,   230400, 0c76823f77d172b7a3ac79968037ba4e
0,          5,          5,        1,   230400, 86617043c64e8c4d7ccfb74add1292d2
0,          6,          6,        1,   230400, e4fdad0755b370f7da1eec4878fdf8e3
0,          7,          7,        1,   230400, 9a338ec428c5fc07c2d42afe9dc019de
1,      22050,      22050,    22050,    88200, e9ded829730eccd2d0273d7cc06be58c
0,          8,          8,        1,   230400, 92a70e677b42b68abb7639813b7ad89c
0,          9,          9,        1,   230400, 7f1e5b46a071fd8ce116838945708f9e
0,         10,         10,        1,   230400, 2ec15e875ccafd93e5b0d1942f893b44
0,         11,         11,        1,   230400, 0cb4971546108a81dd57b6e5005e36cf
0,         12,         12,        1,   230400, 7ad1e5ca8587a81b9a2e2796849716d5
0,         13,         13,        1,   230400, aa671ba9f8655c718e311d2c9198b06e
0,         14,         14,        1,   230400, 03abe35620d6ac11fa921d478841daa4
0,         15,         15,        1,   230400, 1ec2598dab7f35422295861d7a588c76
1,      44100,      44100,    22050,    88200, e9ded829730eccd2d0273d7cc06be58c
0,         16,         16,        1,   230400, cef89345aba019440d1e0776320e5e5a
0,         17,         17,        1,   230400, 8ef9db7d5e3e0798841fa7206fbab9aa
0,         18,         18,        1,   230400, c16eba6a4988ba8d575328023ff39e7f
0,         19,         19,        1,   230400, b9d4a13323d84384cc45a39be88739c2
0,         20,         20,        1,   230400, 3e505c5b6ea8f1b410d8d82a05f4fae5
0,         21,         21,        1,   230400, f55ee67421abd4510006cf19979d6959
0,         22,         22,        1,   230400, c1c31cc94dc29808ae7e7b1d5ba305aa
1,      66150,      66150,    22050,    88200, e9ded829730eccd2d0273d7cc06be58c
0,         23,         23,        1,   230400, a93ebbc0645b32ecd31de36a7488ff97
0,         24,         24,        1,   230400, ec49a0f4de7e75365fea58bb95827940
0,         25,         25,        1,   230400, 88354d47d4db574aef19fd1c4116848a
0,         26,         26,        1,   230400, e5c555c27d4662cd52ce4e555e48fd8d
0,         27,         27,        1,   230400, 3f3a946e8940876285636f47a46ccdaf
0,         28,         28,        1,   230400, 282ec8ef141ec8c5e96a1306f51a897e
0,         29,         29,        1,   230400, 8781d4a9ad4e5ffb769399460e000726
0,         30,         30,        1,   230400, 50c563717d716b848897babdf3a2c8d3
1,      88200,      88200,    22050,    88200, e9ded829730eccd2d0273d7cc06be58c
0,         31,         31,        1,   230400, 04c6f504966e3fcc7e084ee33e03bd22
0,         32,         32,        1,   230400, c948424b7b047411ce0c934ff1456d10
0,         33,         33,        1,   230400, 4689ba61320be32a8eb5ef05e913b63c
0,         34,         34,        1,   230400, f131121521dcf7c3ae3e6d48d9f1fb24
0,         35,         35,        1,   230400, 025a6b458a076a5757edc8d030cea92c
0,         36,         36,        1,   230400, 483656956941ba9d7d29e649c3dcf78f
0,         37,         37,        1,   230400, c1bb0a81365e414e06837e0a4b419e8e
1,     110250,     110250,    22050,    88200, e9ded829730eccd2d0273d7cc06be58c
0,         38,         38,        1,   230400, 82eabdbecb3a51824b9eb52fbe3e3a29
0,         39,         39,        1,   230400, 9a67bb2ddd5d672cd7df41d4134f3511
0,         40,         40,        1,   230400, 79447fdac65872fdbfc4d89d72c103ac
0,         41,         41,        1,   230400, 67a7175a3034b6b1cd4977ea39876d74
0,         42,         42,        1,   230400, 08825611f3beeabf9f5acf971547d605
0,         43,         43,        1,   230400, 23ccf502ddbe5231e14f9904745912b3
0,         44,         44,        1,   230400, d4720b0b1e02574f536f8b3786601906
0,         45,         45,        1,   230400, 5d05d21b1513c379c748bd1438facaa8
1,     132300,     132300,    22050,    88200, e9ded829730eccd2d0273d7cc06be58c
0,         46,         46,        1,   230400, c6ece45e8b06761e3353d88b96c2a5ac
0,         47,         47,        1,   230400, c73bc07e5904d89ec010dc5f10e04d99
0,         48,         48,        1,   230400, 07ee820ec4f60ce4106821fd2657636b
0,         49,         49,        1,   230400, f10580afc96405483b73107b74797e54
0,         50,         50,        1,   230400, abf452d1f581dd7ccad0885928a96749
0,         51,         51,        1,   230400, ca43674217a727f9fe268e3eff982140
0,         52,         52,        1,   230400, 5493c1c2c41b498efadbbeca22260639
1,     154350,     154350,    22050,    88200, e9ded829730eccd2d0273d7cc06be58c
0,         53,         53,        1,   230400, f954b0fc3722af02a2d697c83b6821a7
0,         54,         54,        1,   230400, fbeea74df1403e1363e7294f8eb0fa8f
0,         55,         55,        1,   230400, 55a4ede47e2ef95cd539ebaf9f432fee
0,         56,         56,        1,   230400, 9753feb99323126a2f5887087b3fe5ba
0,         57,         57,        1,   230400, b4d1a2d9286aa69aa0e27d4d9db1e4be
0,         58,         58,        1,   230400, 33074f0180fea17e8f6cf48e4e6b34a7
0,         59,         59,        1,   230400, 03b8386a84e08557f39992c4cf56832f
0,         60,         60,        1,   230400, 57cb54e667b4f702629ed01a08b050bc
1,     176400,     176400,    22050,    88200, e9ded829730eccd2d0273d7cc06be58c
0,         61,         61,        1,   230400, 5315e32b2d8f05915a7426fcf34370bc
0,         62,         62,        1,   230400, 3bd7c9a5d8363845d37c67c6481322d8
0,         63,         63,        1,   230400, 265e9b3c23d62ecce1c63ba588248219
0,         64,         64,        1,   230400, 4f77f0380c048d96365f39b16c12b02f
0,         65,         65,        1,   230400, 91b443c1e01b2607dea67013fd598706
0,         66,         66,        1,   230400, 0ac0ee912e05655f74f179a1d539c465
0,         67,         67,        1,   230400, ed41ddfcf89c88ae43af8f40fc3b9d99
1,     198450,     198450,    22050,    88200, e9ded829730eccd2d0273d7cc06be58c
0,         68,         68,        1,   230400, c6b2f2f1ec24e0a7cda1a641e715b6b5
0,         69,         69,        1,   230400, c307e56a77a597414efa8c1421a43334
0,         70,         70,        1,   230400, 32d8fecf5a7acf9cd198412514d15591
0,         71,         71,        1,   230400, 46a0b7f9dd61651235c839c6a37db330
0,         72,         72,        1,   230400, 9265a0f584e448f56ffb4ad446f3f56d
0,         73,         73,        1,   230400, 94db81ab19f8703e297125705e8b9f69
0,         74,         74,        1,   230400, e2c40363c459250d86ad3a33f1a39b09
0,         75,         75,        1,   230400, 49342aa575f2c776510ffddd627c80f4
1,     220500,     220500,    22050,    88200, e9ded829730eccd2d0273d7cc06be58c
0,         76,         76,        1,   230400, f72a8bf85e4161eb29f211a6852314ac
0,         77,         77,        1,   230400, a5cba780ea65f82defaa224a0cdc000f
0,         78,         78,        1,   230400, ce2ee256cbda95ad7cee9e45da53d0b3
0,         79,         79,        1,   230400, 9a52e620d2ed5e4fc015c507506f3c48
0,         80,         80,        1,   230400, 61f064eb790a0c29471c6c2cedf3192b
0,         81,         81,        1,   230400, f6207fe184321a4af47b77ef704ae93e
0,         82,         82,        1,   230400, c95f7880ded59ce80317bff963a3be3f
1,     242550,     242550,    22050,    88200, e9ded829730eccd2d0273d7cc06be58c
0,         83,         83,        1,   230400, 639bfce6192c067d797fc692f2efa05c
0,         84,         84,        1,   230400, 203d75e8772441cd1b811dfe5057777b
0,         85,         85,        1,   230400, 3289a4e6b4691780f9a6ff877527fb9d
0,         86,         86,        1,   230400, 26c2c2bb5fb388d9038cd27380f5bd83
0,         87,         87,        1,   230400, 5516370a21b4cbde4feb49d912819e99
0,         88,         88,        1,   230400, f40f0e998f7f047f19e10940eca7a7d0
0,         89,         89,        1,   230400, 49b5bc360006f8d7600042b7f165b0f8
0,         90,         90,        1,   230400, 004aa0aa4722e0f00714a65edb5765f4
1,     264600,     264600,     5880,    23520, 74ffd4737eb5488d512be4af58943362
0,         91,         91,        1,   230400, 004aa0aa4722e0f00714a65edb5765f4
